<svg xmlns="http://www.w3.org/2000/svg" xmlns:xlink="http://www.w3.org/1999/xlink" width="400" height="200" viewBox="0 0 400 200">
  <defs>
    <filter id="form-bg" x="125.802" y="47.848" width="69.861" height="81.473" filterUnits="userSpaceOnUse">
      <feOffset dy="2" input="SourceAlpha"/>
      <feGaussianBlur stdDeviation="1" result="blur"/>
      <feFlood flood-opacity="0.161"/>
      <feComposite operator="in" in2="blur"/>
      <feComposite in="SourceGraphic"/>
    </filter>
    <filter id="form-bg-2" x="284.207" y="47.848" width="69.861" height="81.473" filterUnits="userSpaceOnUse">
      <feOffset dy="2" input="SourceAlpha"/>
      <feGaussianBlur stdDeviation="1" result="blur-2"/>
      <feFlood flood-opacity="0.161"/>
      <feComposite operator="in" in2="blur-2"/>
      <feComposite in="SourceGraphic"/>
    </filter>
    <filter id="form-bg-3" x="45.932" y="47.047" width="69.861" height="82.252" filterUnits="userSpaceOnUse">
      <feOffset dy="2" input="SourceAlpha"/>
      <feGaussianBlur stdDeviation="1" result="blur-3"/>
      <feFlood flood-opacity="0.161"/>
      <feComposite operator="in" in2="blur-3"/>
      <feComposite in="SourceGraphic"/>
    </filter>
  </defs>
  <g id="howto-encryption_on_client_side" transform="translate(1029 -19295)">
    <g id="Rectangle_203" data-name="Rectangle 203" transform="translate(-1029 19295)" fill="#e5e5e5" stroke="#2fa9ff" stroke-width="3">
      <rect width="400" height="200" rx="4" stroke="none"/>
      <rect x="1.5" y="1.5" width="397" height="197" rx="2.5" fill="none"/>
    </g>
    <path id="Path_164" data-name="Path 164" d="M62.165,150.008,48.271,137.343A1.162,1.162,0,0,0,47,137.162a1.05,1.05,0,0,0-.688,1.05v8.105H1.158A1.114,1.114,0,0,0,0,147.475v6.947a1.114,1.114,0,0,0,1.158,1.157H46.317v8.105A1.091,1.091,0,0,0,47,164.734a1.129,1.129,0,0,0,1.267-.216l13.895-12.81a1.183,1.183,0,0,0,.361-.868A1.143,1.143,0,0,0,62.165,150.008Z" transform="translate(-820.329 19230.82)" fill="#ccc"/>
    <g id="Group_348" data-name="Group 348" transform="translate(-900.198 19343.848)">
      <g id="Group_315" data-name="Group 315">
        <g id="Group_305" data-name="Group 305">
          <g transform="matrix(1, 0, 0, 1, -128.8, -48.85)" filter="url(#form-bg)">
            <rect id="form-bg-4" data-name="form-bg" width="63.861" height="75.472" rx="4" transform="translate(128.8 48.85)" fill="#fff"/>
          </g>
          <g id="Group_259" data-name="Group 259" transform="translate(6.111 6.723)">
            <rect id="Rectangle_205" data-name="Rectangle 205" width="49.805" height="6.722" rx="3.361" transform="translate(0 0)" fill="#d0d0d0"/>
            <rect id="Rectangle_206" data-name="Rectangle 206" width="19.861" height="6.722" rx="3.361" transform="translate(0 12.222)" fill="#efefef"/>
            <rect id="Rectangle_208" data-name="Rectangle 208" width="29.944" height="6.722" rx="3.361" transform="translate(0 24.444)" fill="#efefef"/>
            <rect id="Rectangle_210" data-name="Rectangle 210" width="17.111" height="6.722" rx="3.361" transform="translate(0 36.667)" fill="#efefef"/>
            <rect id="Rectangle_211" data-name="Rectangle 211" width="17.111" height="6.722" rx="3.361" transform="translate(19.25 36.667)" fill="#efefef"/>
            <rect id="Rectangle_209" data-name="Rectangle 209" width="17.722" height="6.722" rx="3.361" transform="translate(32.083 24.444)" fill="#efefef"/>
            <rect id="Rectangle_207" data-name="Rectangle 207" width="27.805" height="6.722" rx="3.361" transform="translate(22 12.222)" fill="#efefef"/>
          </g>
        </g>
      </g>
    </g>
    <g id="Group_349" data-name="Group 349" transform="translate(-741.793 19343.848)">
      <g id="Group_320" data-name="Group 320">
        <g id="Group_315-2" data-name="Group 315">
          <g id="Group_305-2" data-name="Group 305">
            <g transform="matrix(1, 0, 0, 1, -287.21, -48.85)" filter="url(#form-bg-2)">
              <rect id="form-bg-5" data-name="form-bg" width="63.861" height="75.472" rx="4" transform="translate(287.21 48.85)" fill="#ffe5e5"/>
            </g>
            <g id="Group_259-2" data-name="Group 259" transform="translate(6.111 6.723)">
              <rect id="Rectangle_205-2" data-name="Rectangle 205" width="49.805" height="6.722" rx="3.361" transform="translate(0 0)" fill="#d0d0d0"/>
              <rect id="Rectangle_206-2" data-name="Rectangle 206" width="19.861" height="6.722" rx="3.361" transform="translate(0 12.222)" fill="#efefef"/>
              <rect id="Rectangle_208-2" data-name="Rectangle 208" width="29.944" height="6.722" rx="3.361" transform="translate(0 24.444)" fill="#efefef"/>
              <rect id="Rectangle_210-2" data-name="Rectangle 210" width="17.111" height="6.722" rx="3.361" transform="translate(0 36.667)" fill="#efefef"/>
              <rect id="Rectangle_211-2" data-name="Rectangle 211" width="17.111" height="6.722" rx="3.361" transform="translate(19.25 36.667)" fill="#efefef"/>
              <rect id="Rectangle_209-2" data-name="Rectangle 209" width="17.722" height="6.722" rx="3.361" transform="translate(32.083 24.444)" fill="#efefef"/>
              <rect id="Rectangle_207-2" data-name="Rectangle 207" width="27.805" height="6.722" rx="3.361" transform="translate(22 12.222)" fill="#efefef"/>
            </g>
          </g>
        </g>
      </g>
      <g id="Group_321" data-name="Group 321" transform="translate(16.016 16.016)">
        <path id="Path_123" data-name="Path 123" d="M92.782,220.824H66.222a2.45,2.45,0,0,0-2.45,2.45v18.5a2.45,2.45,0,0,0,2.45,2.45h26.56a2.45,2.45,0,0,0,2.45-2.45v-18.5A2.45,2.45,0,0,0,92.782,220.824Z" transform="translate(-63.772 -201.737)" fill="#dc8744"/>
        <path id="Path_124" data-name="Path 124" d="M253.2,11.568V17.6h4.128V11.568A11.581,11.581,0,0,0,245.759,0V4.128A7.449,7.449,0,0,1,253.2,11.568Z" transform="translate(-230.029)" fill="#3a556a"/>
        <path id="Path_125" data-name="Path 125" d="M116.054,17.6V11.568a7.448,7.448,0,0,1,7.44-7.44V0a11.581,11.581,0,0,0-11.568,11.568V17.6h4.128Z" transform="translate(-107.764)" fill="#64798a"/>
        <path id="Path_126" data-name="Path 126" d="M259.04,203.577H245.76v23.4h13.28a2.45,2.45,0,0,0,2.45-2.45v-18.5A2.451,2.451,0,0,0,259.04,203.577Z" transform="translate(-230.03 -185.981)" fill="#f6c358"/>
        <path id="Path_127" data-name="Path 127" d="M72.062,203.577h-5.84a2.45,2.45,0,0,0-2.45,2.45v18.5a2.45,2.45,0,0,0,2.45,2.45H79.5v-23.4Z" transform="translate(-63.772 -185.981)" fill="#fcd462"/>
        <path id="Path_128" data-name="Path 128" d="M218.956,268.007a2.8,2.8,0,1,0-4.3,2.359l-.835,3.98h4.667l-.835-3.98A2.793,2.793,0,0,0,218.956,268.007Z" transform="translate(-200.425 -242.283)" fill="#dc8744"/>
      </g>
    </g>
    <g id="Group_332" data-name="Group 332" transform="translate(-980.068 19343.047)">
      <g id="form" transform="translate(0 0)">
        <g transform="matrix(1, 0, 0, 1, -48.93, -48.05)" filter="url(#form-bg-3)">
          <rect id="form-bg-6" data-name="form-bg" width="63.861" height="76.252" rx="4" transform="translate(48.93 48.05)" fill="#fff"/>
        </g>
        <g id="elements" transform="translate(6.672 5.718)">
          <rect id="element-button" width="24.782" height="6.672" rx="2" transform="translate(26.688 58.142)" fill="#8bcbff"/>
          <rect id="element-short" width="51.47" height="7.625" rx="2" transform="translate(0 9.531)" fill="#f4f4f4"/>
          <rect id="element-long" width="51.47" height="14.297" rx="2" transform="translate(0 33.36)" fill="#f4f4f4"/>
          <g id="element-yesno" transform="translate(0 20.968)">
            <rect id="Rectangle_32" data-name="Rectangle 32" width="23.829" height="6.672" rx="2" transform="translate(0 0)" fill="#ffdede"/>
            <rect id="Rectangle_33" data-name="Rectangle 33" width="24.782" height="6.672" rx="2" transform="translate(26.688 0)" fill="#dfffde"/>
          </g>
          <g id="element-header" transform="translate(0 0)">
            <rect id="Rectangle_30" data-name="Rectangle 30" width="19.063" height="4.766" rx="2" fill="#dedede"/>
            <rect id="Rectangle_31" data-name="Rectangle 31" width="29.548" height="4.766" rx="2" transform="translate(21.922)" fill="#dedede"/>
          </g>
        </g>
      </g>
    </g>
    <g id="Group_333" data-name="Group 333" transform="translate(-966.131 19431.934)">
      <path id="Path_129" data-name="Path 129" d="M50.7,303.886v-3.748H38.248v3.748a1.384,1.384,0,0,1-1.067,1.347l-8.564,2.015a2.768,2.768,0,0,0-2.134,2.695v6.112a.692.692,0,0,0,.692.692h34.6a.692.692,0,0,0,.692-.692v-6.112a2.768,2.768,0,0,0-2.134-2.695l-8.564-2.015A1.384,1.384,0,0,1,50.7,303.886Z" transform="translate(-26.483 -276.608)" fill="#e6af78"/>
      <path id="Path_130" data-name="Path 130" d="M60.336,363.147l-8.564-2.015a1.371,1.371,0,0,1-.36-.145l-6.936,4.046-6.666-4.242a1.378,1.378,0,0,1-.63.34l-8.564,2.015a2.768,2.768,0,0,0-2.134,2.695v6.112a.692.692,0,0,0,.692.692h34.6a.692.692,0,0,0,.692-.692v-6.112A2.768,2.768,0,0,0,60.336,363.147Z" transform="translate(-26.483 -332.507)" fill="#53a8e0"/>
      <path id="Path_131" data-name="Path 131" d="M189.778,365.323l-6.093,3.554-6.152-3.915a6.224,6.224,0,0,0,12.245.36Z" transform="translate(-165.691 -336.351)" fill="#d5dcec"/>
      <path id="Path_132" data-name="Path 132" d="M169.525,303.886a1.382,1.382,0,0,1-.6,1.135c8.21,4.113,13.055-4.02,13.055-4.02v-.863H169.525Z" transform="translate(-157.76 -276.608)" fill="#d29b6e"/>
      <path id="Path_133" data-name="Path 133" d="M141.241,97.1l.6,13.268A4.152,4.152,0,0,0,143.5,113.5l2.862,2.146a4.152,4.152,0,0,0,2.491.83h2.768a4.152,4.152,0,0,0,2.491-.83l2.861-2.146a4.152,4.152,0,0,0,1.657-3.133l.6-13.268Z" transform="translate(-132.244 -89.49)" fill="#f0c087"/>
      <path id="Path_134" data-name="Path 134" d="M141.241,97.1l.6,13.268A4.152,4.152,0,0,0,143.5,113.5l2.861,2.146a4.152,4.152,0,0,0,2.491.83h1.384c-2.076-.692-3.46-6.228-3.46-6.228V102.7a1,1,0,0,1,.915-1c3.877-.376,8.257-1.349,11.542-3.646V97.1Z" transform="translate(-132.244 -89.49)" fill="#e6af78"/>
      <path id="Path_135" data-name="Path 135" d="M123.586,6.921v.692l.692,7.613h1.384l1.384-4.152s9,0,13.841-2.768l1.384,6.921h1.384l.692-7.613V6.921A6.92,6.92,0,0,0,137.427,0h-6.921A6.92,6.92,0,0,0,123.586,6.921Z" transform="translate(-115.973)" fill="#5a4146"/>
      <path id="Path_136" data-name="Path 136" d="M354.646,187.159l-.782,3.126a.832.832,0,0,1-.807.63h0a.832.832,0,0,1-.826-.729l-.4-3.2a1.433,1.433,0,0,1,1.422-1.61h0A1.433,1.433,0,0,1,354.646,187.159Z" transform="translate(-326.315 -170.846)" fill="#f0c087"/>
      <path id="Path_137" data-name="Path 137" d="M123.63,187.159l.782,3.126a.832.832,0,0,0,.807.63h0a.832.832,0,0,0,.826-.729l.4-3.2a1.433,1.433,0,0,0-1.422-1.61h0A1.433,1.433,0,0,0,123.63,187.159Z" transform="translate(-115.974 -170.846)" fill="#e6af78"/>
      <g id="Group_298" data-name="Group 298" transform="translate(0 28.285)">
        <path id="Path_138" data-name="Path 138" d="M31.563,407.353l-4.485-4.028a2.764,2.764,0,0,0-.6,1.716v6.112a.692.692,0,0,0,.692.692h5.536v-1.917A3.46,3.46,0,0,0,31.563,407.353Z" transform="translate(-26.482 -399.991)" fill="#2680eb"/>
        <path id="Path_139" data-name="Path 139" d="M407.217,407.353l4.484-4.028a2.764,2.764,0,0,1,.6,1.716v6.112a.692.692,0,0,1-.692.692h-5.536v-1.917A3.46,3.46,0,0,1,407.217,407.353Z" transform="translate(-376.311 -399.991)" fill="#2680eb"/>
        <path id="Path_140" data-name="Path 140" d="M167.375,367.8a7.618,7.618,0,0,0,7.539-6.612l-.243-.057a1.376,1.376,0,0,1-.36-.145l-.844.492a6.223,6.223,0,0,1-12.243-.361l-.514-.327a1.378,1.378,0,0,1-.63.34l-.243.057A7.618,7.618,0,0,0,167.375,367.8Z" transform="translate(-149.381 -360.793)" fill="#2680eb"/>
      </g>
      <g id="Group_299" data-name="Group 299" transform="translate(9.689 26.656)">
        <path id="Path_141" data-name="Path 141" d="M152.048,340.189l6.326,5.693a23.865,23.865,0,0,0-3.958,2.7.888.888,0,0,1-1.375-.311l-2.972-6.538.94-1.41A.692.692,0,0,1,152.048,340.189Z" transform="translate(-150.069 -340.011)" fill="#e4eaf6"/>
        <path id="Path_142" data-name="Path 142" d="M262.326,340.189,256,345.882a23.863,23.863,0,0,1,3.958,2.7.888.888,0,0,0,1.375-.311l2.972-6.538-.94-1.41A.692.692,0,0,0,262.326,340.189Z" transform="translate(-247.695 -340.011)" fill="#e4eaf6"/>
      </g>
    </g>
  </g>
</svg>
